# Blender v2.78 (sub 0) OBJ File: '42_run_world.blend'
# www.blender.org
o BasicWall_Cube
v 7.999998 -8.000000 -0.400000
v 8.000002 -8.000000 0.400000
v -7.999999 -8.000000 0.400000
v -7.999998 -8.000000 -0.400000
v 8.000002 8.000000 -0.400000
v 7.999998 8.000000 0.400000
v -8.000002 8.000000 0.400000
v -8.000001 8.000000 -0.400000
vt 0.9752 0.9755
vt 0.4878 0.9999
vt 0.4878 0.9755
vt 0.0001 0.5122
vt 0.4875 0.4878
vt 0.4875 0.5122
vt 0.5368 0.9752
vt 0.5125 0.4878
vt 0.5368 0.4878
vt 0.4875 0.4875
vt 0.0001 0.0001
vt 0.4875 0.0001
vt 0.5122 0.9752
vt 0.4878 0.4878
vt 0.5122 0.4878
vt 0.9752 0.4875
vt 0.4878 0.0001
vt 0.9752 0.0001
vt 0.9752 0.9999
vt 0.0001 0.4878
vt 0.5125 0.9752
vt 0.0001 0.4875
vt 0.4878 0.9752
vt 0.4878 0.4875
vn 0.0000 -1.0000 0.0000
vn 0.0000 1.0000 0.0000
vn 1.0000 -0.0000 -0.0000
vn -0.0000 -0.0000 1.0000
vn -1.0000 -0.0000 -0.0000
vn 0.0000 0.0000 -1.0000
s off
f 1/1/1 3/2/1 4/3/1
f 8/4/2 6/5/2 5/6/2
f 5/7/3 2/8/3 1/9/3
f 6/10/4 3/11/4 2/12/4
f 7/13/5 4/14/5 3/15/5
f 1/16/6 8/17/6 5/18/6
f 1/1/1 2/19/1 3/2/1
f 8/4/2 7/20/2 6/5/2
f 5/7/3 6/21/3 2/8/3
f 6/10/4 7/22/4 3/11/4
f 7/13/5 8/23/5 4/14/5
f 1/16/6 4/24/6 8/17/6
