# Blender v2.78 (sub 0) OBJ File: '42_run_world.blend'
# www.blender.org
o Chair_1_Cube.005
v -7.864062 0.699483 16.944452
v -7.864062 0.699483 15.056887
v -5.908355 0.699483 16.944452
v -5.908355 0.699483 15.056887
v -7.908355 0.380748 16.944452
v -7.609424 0.699483 16.944452
v -7.908355 0.380748 15.056887
v -7.609424 0.699483 15.056887
v -5.908355 0.380748 15.056887
v -5.908355 0.380748 16.944452
v -6.751700 0.380748 15.852821
v -6.751700 0.380748 16.148518
v -7.065010 -0.759993 15.844015
v -7.065010 0.380748 15.852821
v -7.065010 0.380748 16.148518
v -8.137812 4.129575 16.944452
v -8.137812 4.129575 15.056887
v -7.838881 4.129575 16.944452
v -7.838881 4.129575 15.056887
v -7.065010 -0.634249 15.844015
v -6.751700 -0.634249 16.157324
v -7.657756 -0.759993 15.844015
v -7.065010 -0.634249 16.157324
v -7.065010 -0.759993 16.157324
v -6.751700 -0.759993 15.844015
v -6.751700 -0.759993 16.157324
v -7.657756 -0.759993 16.157324
v -7.065010 -0.634249 15.096306
v -6.751700 -0.634249 15.096306
v -6.751700 -0.759993 16.755678
v -6.751700 -0.634249 15.844015
v -7.777479 -0.634249 16.157324
v -7.777479 -0.634249 15.844015
v -6.033312 -0.634249 16.157324
v -6.033312 -0.634249 15.844015
v -7.065010 -0.759993 16.755678
v -6.751700 -0.634249 16.868380
v -7.065010 -0.634249 16.868380
v -6.155994 -0.759993 16.157324
v -6.155994 -0.759993 15.844015
v -6.751700 -0.759993 15.227335
v -7.065010 -0.759993 15.227335
v -7.657756 -0.983687 15.844015
v -6.751700 -0.983687 16.868380
v -6.751700 -0.983687 16.755678
v -7.657756 -0.983687 16.157324
v -7.777479 -0.983687 16.157324
v -6.751700 -0.983687 15.096306
v -7.777479 -0.983687 15.844015
v -7.065010 -0.983687 16.755678
v -7.065010 -0.983687 16.868380
v -7.065010 -0.983687 15.227335
v -7.065010 -0.983687 15.096306
v -6.033312 -0.983687 15.844015
v -6.033312 -0.983687 16.157324
v -6.155994 -0.983687 16.157324
v -6.155994 -0.983687 15.844015
v -6.751700 -0.983687 15.227335
vt 0.0004 0.1295
vt 0.0552 0.1468
vt 0.0260 0.1632
vt 0.4981 0.8637
vt 0.2496 0.8637
vt 0.4981 0.8244
vt 0.7672 0.6281
vt 0.7753 0.6488
vt 0.7511 0.6712
vt 0.8549 0.6609
vt 0.4841 0.7857
vt 0.4841 0.7562
vt 0.5003 0.7562
vt 0.2805 0.5752
vt 0.2805 0.6046
vt 0.2644 0.5752
vt 0.7931 0.4117
vt 0.8344 0.4117
vt 0.7931 0.4411
vt 0.4463 0.1468
vt 0.4755 0.1632
vt 0.2511 0.5551
vt 0.3476 0.8120
vt 0.3064 0.8120
vt 0.3476 0.7972
vt 0.2511 0.0369
vt 0.2717 0.0004
vt 0.3056 0.7972
vt 0.3056 0.8129
vt 0.2644 0.7972
vt 0.5019 0.0427
vt 0.7504 0.0427
vt 0.7504 0.4957
vt 0.4599 0.7203
vt 0.5012 0.7203
vt 0.4599 0.7376
vt 0.1526 0.6799
vt 0.0004 0.5752
vt 0.2637 0.5752
vt 0.5012 0.5752
vt 0.5012 0.6736
vt 0.4599 0.6736
vt 0.7924 0.2250
vt 0.7924 0.3587
vt 0.7511 0.2250
vt 0.1114 0.6799
vt 0.2489 0.8244
vt 0.2489 0.8663
vt 0.0004 0.8244
vt 0.5012 0.1295
vt 0.0004 0.8237
vt 0.1526 0.7189
vt 0.2637 0.8237
vt 0.5019 0.0004
vt 0.7504 0.0004
vt 0.5012 0.7383
vt 0.5012 0.7545
vt 0.4599 0.7383
vt 0.4470 0.7555
vt 0.4057 0.7555
vt 0.4057 0.6219
vt 0.7504 0.9491
vt 0.5019 0.9491
vt 0.5019 0.4965
vt 0.2496 0.8244
vt 0.7504 0.4965
vt 0.8344 0.3035
vt 0.8344 0.3329
vt 0.7931 0.3035
vt 0.5003 0.8023
vt 0.4057 0.8023
vt 0.2854 0.5744
vt 0.7931 0.3336
vt 0.2161 0.5744
vt 0.7931 0.2250
vt 0.8344 0.2250
vt 0.7806 0.8071
vt 0.7806 0.7658
vt 0.8594 0.8071
vt 0.7511 0.7658
vt 0.7511 0.8071
vt 0.7511 0.6771
vt 0.8323 0.6771
vt 0.7511 0.7184
vt 0.1114 0.7189
vt 0.8618 0.6771
vt 0.8323 0.7184
vt 0.8079 0.4419
vt 0.8079 0.4713
vt 0.7931 0.4419
vt 0.8867 0.4713
vt 0.8867 0.4879
vt 0.7523 0.6274
vt 0.7511 0.4938
vt 0.7924 0.4938
vt 0.5019 0.4957
vt 0.7669 0.8078
vt 0.7669 0.8373
vt 0.7511 0.8078
vt 0.2806 0.7478
vt 0.2895 0.7689
vt 0.2644 0.7909
vt 0.5012 0.7196
vt 0.4599 0.7196
vt 0.8449 0.8373
vt 0.8449 0.8538
vt 0.2504 0.5551
vt 0.2298 0.0004
vt 0.9996 0.2243
vt 0.7511 0.2243
vt 0.9996 0.0004
vt 0.7931 0.4886
vt 0.8344 0.4886
vt 0.8344 0.5298
vt 0.3684 0.7809
vt 0.3626 0.7964
vt 0.4599 0.7545
vt 0.7931 0.5298
vt 0.2644 0.6631
vt 0.2644 0.6219
vt 0.3590 0.6219
vt 0.3590 0.6631
vt 0.4050 0.6631
vt 0.7511 0.7191
vt 0.8496 0.7191
vt 0.8323 0.7357
vt 0.3590 0.6212
vt 0.3590 0.6046
vt 0.4402 0.6046
vt 0.7511 0.3587
vt 0.7523 0.4930
vt 0.7511 0.3594
vt 0.7924 0.3594
vt 0.4042 0.6639
vt 0.4042 0.7051
vt 0.3104 0.7051
vt 0.2644 0.7058
vt 0.3104 0.7058
vt 0.2644 0.7471
vt 0.8618 0.7184
vt 0.7511 0.8538
vt 0.4040 0.7471
vt 0.3104 0.7471
vt 0.4057 0.7857
vt 0.2644 0.6212
vt 0.3104 0.6639
vt 0.2644 0.6639
vt 0.7931 0.4879
vt 0.8491 0.6764
vt 0.7511 0.7357
vt 0.4470 0.6219
vt 0.7511 0.0004
vt 0.4050 0.6219
vt 0.7931 0.3329
vt 0.8594 0.7658
vt 0.7912 0.4930
vt 0.8344 0.4411
vt 0.8344 0.3336
vt 0.2644 0.7051
vt 0.3064 0.7972
vt 0.8323 0.7651
vt 0.8496 0.7651
vt 0.4040 0.7058
vt 0.4574 0.6212
vt 0.2644 0.8129
vt 0.5012 0.7376
vt 0.4599 0.5752
vt 0.2791 0.7964
vt 0.7912 0.6274
vt 0.4574 0.5752
vt 0.4402 0.5752
vt 0.2504 0.0369
vt 0.7650 0.6764
vt 0.0004 0.8663
vn 0.0000 0.0000 1.0000
vn 0.0000 1.0000 0.0000
vn -1.0000 0.0000 0.0000
vn 0.0000 0.0000 -1.0000
vn 1.0000 0.0000 0.0000
vn 0.0000 -1.0000 0.0000
vn -0.9968 -0.0796 0.0000
vn 0.0000 0.0087 -1.0000
vn -0.9905 0.1376 0.0000
vn 0.0000 0.0087 1.0000
vn 0.9978 0.0667 0.0000
s off
f 5/1/1 6/2/1 1/3/1
f 17/4/2 16/5/2 19/6/2
f 38/7/3 36/8/3 51/9/3
f 38/7/3 23/10/3 36/8/3
f 39/11/1 56/12/1 55/13/1
f 57/14/4 40/15/4 54/16/4
f 22/17/5 27/18/5 43/19/5
f 8/20/4 2/21/4 19/22/4
f 44/23/6 51/24/6 45/25/6
f 4/26/4 9/27/4 8/20/4
f 49/28/6 43/29/6 47/30/6
f 2/31/7 1/32/7 16/33/7
f 53/34/6 48/35/6 52/36/6
f 11/37/6 7/38/6 9/39/6
f 31/40/2 29/41/2 28/42/2
f 20/43/8 14/44/8 31/45/8
f 14/46/6 7/38/6 11/37/6
f 9/47/5 4/48/5 10/49/5
f 7/50/4 2/21/4 8/20/4
f 5/51/6 12/52/6 10/53/6
f 7/54/9 5/55/9 2/31/9
f 57/56/6 54/57/6 56/58/6
f 12/59/10 15/60/10 23/61/10
f 19/62/11 18/63/11 6/64/11
f 16/5/2 18/65/2 19/6/2
f 9/39/6 12/52/6 11/37/6
f 14/46/6 5/51/6 7/38/6
f 8/66/11 19/62/11 6/64/11
f 9/39/6 10/53/6 12/52/6
f 40/67/3 57/68/3 39/69/3
f 34/70/1 21/71/1 39/11/1
f 2/21/4 17/72/4 19/22/4
f 22/17/6 13/73/6 27/18/6
f 1/3/1 6/2/1 16/74/1
f 26/75/6 25/76/6 39/69/6
f 30/77/6 36/78/6 26/79/6
f 50/80/4 36/78/4 45/81/4
f 13/82/6 42/83/6 25/84/6
f 5/51/6 15/85/6 12/52/6
f 42/83/1 52/86/1 41/87/1
f 45/88/5 30/89/5 44/90/5
f 26/91/5 21/92/5 30/89/5
f 14/46/6 15/85/6 5/51/6
f 12/93/5 21/94/5 31/95/5
f 17/96/7 2/31/7 16/33/7
f 46/97/1 27/98/1 47/99/1
f 33/100/4 22/101/4 49/102/4
f 48/103/4 53/104/4 28/42/4
f 24/105/1 23/106/1 27/98/1
f 6/2/1 18/107/1 16/74/1
f 5/1/1 10/108/1 6/2/1
f 8/109/2 6/110/2 4/111/2
f 13/112/6 25/113/6 26/114/6
f 20/115/4 13/116/4 22/101/4
f 54/57/6 55/117/6 56/58/6
f 13/112/6 26/114/6 24/118/6
f 31/119/2 21/120/2 34/121/2
f 35/122/5 34/121/5 54/123/5
f 20/124/3 28/125/3 42/126/3
f 31/127/5 25/128/5 41/129/5
f 14/44/8 11/130/8 31/45/8
f 14/131/3 20/132/3 23/133/3
f 23/134/2 20/135/2 33/136/2
f 44/137/1 37/138/1 51/139/1
f 52/86/1 58/140/1 41/87/1
f 23/106/1 32/141/1 27/98/1
f 23/142/2 38/143/2 37/138/2
f 29/41/4 48/103/4 28/42/4
f 36/78/4 30/77/4 45/81/4
f 21/71/1 26/144/1 39/11/1
f 31/127/4 35/145/4 40/15/4
f 32/146/3 33/136/3 47/147/3
f 21/92/5 37/148/5 30/89/5
f 23/10/3 24/149/3 36/8/3
f 13/150/3 20/124/3 42/126/3
f 25/76/6 40/67/6 39/69/6
f 42/83/6 41/87/6 25/84/6
f 32/146/2 23/134/2 33/136/2
f 37/138/1 38/143/1 51/139/1
f 21/151/10 12/59/10 23/61/10
f 6/110/2 3/152/2 4/111/2
f 34/121/5 55/153/5 54/123/5
f 57/68/3 56/154/3 39/69/3
f 9/27/4 7/50/4 8/20/4
f 36/78/6 24/155/6 26/79/6
f 15/156/3 14/131/3 23/133/3
f 30/89/5 37/148/5 44/90/5
f 27/18/5 46/157/5 43/19/5
f 13/73/6 24/158/6 27/18/6
f 33/136/3 49/159/3 47/147/3
f 51/24/6 50/160/6 45/25/6
f 52/161/3 42/126/3 53/162/3
f 21/163/2 23/142/2 37/138/2
f 35/122/2 31/119/2 34/121/2
f 29/164/5 31/127/5 41/129/5
f 43/29/6 46/165/6 47/30/6
f 48/35/6 58/166/6 52/36/6
f 20/167/2 31/40/2 28/42/2
f 39/11/1 55/13/1 34/70/1
f 22/101/4 43/168/4 49/102/4
f 33/100/4 20/115/4 22/101/4
f 11/169/5 12/93/5 31/95/5
f 40/15/4 35/145/4 54/16/4
f 42/126/3 28/125/3 53/162/3
f 29/164/5 41/129/5 48/170/5
f 41/129/5 58/171/5 48/170/5
f 10/108/1 3/172/1 6/2/1
f 36/8/3 50/173/3 51/9/3
f 27/98/1 32/141/1 47/99/1
f 4/48/5 3/174/5 10/49/5
f 25/128/4 31/127/4 40/15/4
f 5/55/9 1/32/9 2/31/9
