# Blender v2.78 (sub 0) OBJ File: '42_run_world.blend'
# www.blender.org
o FloorBlock_Cube.001
v -39.999996 -1.696802 40.000000
v -39.999996 -1.296802 40.000000
v -40.000004 -1.696802 -40.000004
v -40.000004 -1.296802 -40.000004
v 40.000004 -1.696802 40.000000
v 40.000004 -1.296802 40.000000
v 40.000000 -1.696802 -40.000004
v 40.000000 -1.296802 -40.000004
vt 0.1570 1.2825
vt 9.3381 0.2207
vt 0.1570 0.2207
vt 0.9647 1.2825
vt 4.1825 0.2207
vt 0.9647 0.2207
vt 0.3381 1.2825
vt -8.8430 0.2207
vt 0.3381 0.2207
vt 0.1825 1.2825
vt -3.0353 0.2207
vt 0.1825 0.2207
vt 4.1825 0.3381
vt 0.9647 -8.8430
vt 0.9647 0.3381
vt -3.0353 0.3381
vt 0.1825 -8.8430
vt 0.1825 0.3381
vt 9.3381 1.2825
vt 4.1825 1.2825
vt -8.8430 1.2825
vt -3.0353 1.2825
vt 4.1825 -8.8430
vt -3.0353 -8.8430
vn -1.0000 0.0000 0.0000
vn 0.0000 0.0000 -1.0000
vn 1.0000 0.0000 -0.0000
vn 0.0000 0.0000 1.0000
vn 0.0000 -1.0000 -0.0000
vn 0.0000 1.0000 0.0000
s off
f 2/1/1 3/2/1 1/3/1
f 4/4/2 7/5/2 3/6/2
f 8/7/3 5/8/3 7/9/3
f 6/10/4 1/11/4 5/12/4
f 7/13/5 1/14/5 3/15/5
f 4/16/6 6/17/6 8/18/6
f 2/1/1 4/19/1 3/2/1
f 4/4/2 8/20/2 7/5/2
f 8/7/3 6/21/3 5/8/3
f 6/10/4 2/22/4 1/11/4
f 7/13/5 5/23/5 1/14/5
f 4/16/6 2/24/6 6/17/6
