# Blender v2.78 (sub 0) OBJ File: '42_run_world.blend'
# www.blender.org
o FloorBlock_Cube.001
v -49.999992 -1.696802 50.000000
v -49.999992 -1.296802 50.000000
v -50.000004 -1.696802 -50.000000
v -50.000004 -1.296802 -50.000000
v 50.000000 -1.696802 50.000000
v 50.000000 -1.296802 50.000000
v 49.999996 -1.696802 -50.000000
v 49.999996 -1.296802 -50.000000
vt 0.0093 1.2825
vt 11.4858 0.2207
vt 0.0093 0.2207
vt 0.5625 1.2825
vt 4.5847 0.2207
vt 0.5625 0.2207
vt 0.4858 1.2825
vt -10.9907 0.2207
vt 0.4858 0.2207
vt 0.5847 1.2825
vt -3.4375 0.2207
vt 0.5847 0.2207
vt 4.5847 0.4858
vt 0.5625 -10.9907
vt 0.5625 0.4858
vt 0.5847 0.4858
vt -3.4375 -10.9907
vt 0.5847 -10.9907
vt 11.4858 1.2825
vt 4.5847 1.2825
vt -10.9907 1.2825
vt -3.4375 1.2825
vt 4.5847 -10.9907
vt -3.4375 0.4858
vn -1.0000 0.0000 0.0000
vn 0.0000 0.0000 -1.0000
vn 1.0000 0.0000 -0.0000
vn 0.0000 0.0000 1.0000
vn 0.0000 -1.0000 -0.0000
vn 0.0000 1.0000 0.0000
s off
f 2/1/1 3/2/1 1/3/1
f 4/4/2 7/5/2 3/6/2
f 8/7/3 5/8/3 7/9/3
f 6/10/4 1/11/4 5/12/4
f 7/13/5 1/14/5 3/15/5
f 8/16/6 2/17/6 6/18/6
f 2/1/1 4/19/1 3/2/1
f 4/4/2 8/20/2 7/5/2
f 8/7/3 6/21/3 5/8/3
f 6/10/4 2/22/4 1/11/4
f 7/13/5 5/23/5 1/14/5
f 8/16/6 4/24/6 2/17/6
