# Blender v2.78 (sub 0) OBJ File: '42_run_world.blend'
# www.blender.org
o ObstacleWall_1_Cube.002
v -2.000000 -5.582492 2.000000
v -2.000000 16.417507 2.000000
v -2.000000 -5.582492 -2.000000
v -2.000000 16.417507 -2.000000
v 2.000000 -5.582492 2.000000
v 2.000000 16.417507 2.000000
v 2.000000 -5.582492 -2.000000
v 2.000000 16.417507 -2.000000
vt 2.7986 0.5093
vt 0.2014 -8.0918
vt 0.2014 0.5093
vt 2.7986 0.5093
vt 0.2014 -8.0918
vt 0.2014 0.5093
vt -1.7986 0.5093
vt 0.7986 -8.0918
vt 0.7986 0.5093
vt -1.7986 0.5093
vt 0.7986 -8.0918
vt 0.7986 0.5093
vt 0.2014 2.7986
vt 2.7986 0.2014
vt 0.2014 0.2014
vt 0.7986 2.7986
vt -1.7986 0.2014
vt 0.7986 0.2014
vt 2.7986 -8.0918
vt 2.7986 -8.0918
vt -1.7986 -8.0918
vt -1.7986 -8.0918
vt 2.7986 2.7986
vt -1.7986 2.7986
vn -1.0000 0.0000 0.0000
vn 0.0000 0.0000 -1.0000
vn 1.0000 0.0000 0.0000
vn 0.0000 0.0000 1.0000
vn 0.0000 -1.0000 0.0000
vn 0.0000 1.0000 0.0000
s off
f 4/1/1 1/2/1 2/3/1
f 8/4/2 3/5/2 4/6/2
f 6/7/3 7/8/3 8/9/3
f 2/10/4 5/11/4 6/12/4
f 3/13/5 5/14/5 1/15/5
f 8/16/6 2/17/6 6/18/6
f 4/1/1 3/19/1 1/2/1
f 8/4/2 7/20/2 3/5/2
f 6/7/3 5/21/3 7/8/3
f 2/10/4 1/22/4 5/11/4
f 3/13/5 7/23/5 5/14/5
f 8/16/6 4/24/6 2/17/6
