# Blender v2.78 (sub 0) OBJ File: '42_run_world.blend'
# www.blender.org
o ObstacleWall_1_Cube.002
v -2.597181 -8.601119 2.597181
v -2.597181 8.601119 2.597181
v -2.597181 -8.601119 -2.597181
v -2.597181 8.601119 -2.597181
v 2.597181 -8.601119 2.597181
v 2.597181 8.601119 2.597181
v 2.597181 -8.601119 -2.597181
v 2.597181 8.601119 -2.597181
vt 2.5315 0.2362
vt 0.7981 -8.3649
vt 0.7981 0.2362
vt 1.8539 0.2362
vt 0.1205 -8.3649
vt 0.1205 0.2362
vt -1.2019 0.2362
vt 0.5315 -8.3649
vt 0.5315 0.2362
vt -0.8795 0.2362
vt 0.8539 -8.3649
vt 0.8539 0.2362
vt 0.1205 2.5315
vt 1.8539 0.7981
vt 0.1205 0.7981
vt 0.8539 2.5315
vt -0.8795 0.7981
vt 0.8539 0.7981
vt 2.5315 -8.3649
vt 1.8539 -8.3649
vt -1.2019 -8.3649
vt -0.8795 -8.3649
vt 1.8539 2.5315
vt -0.8795 2.5315
vn -1.0000 0.0000 0.0000
vn 0.0000 0.0000 -1.0000
vn 1.0000 0.0000 0.0000
vn 0.0000 0.0000 1.0000
vn 0.0000 -1.0000 0.0000
vn 0.0000 1.0000 0.0000
s off
f 4/1/1 1/2/1 2/3/1
f 8/4/2 3/5/2 4/6/2
f 6/7/3 7/8/3 8/9/3
f 2/10/4 5/11/4 6/12/4
f 3/13/5 5/14/5 1/15/5
f 8/16/6 2/17/6 6/18/6
f 4/1/1 3/19/1 1/2/1
f 8/4/2 7/20/2 3/5/2
f 6/7/3 5/21/3 7/8/3
f 2/10/4 1/22/4 5/11/4
f 3/13/5 7/23/5 5/14/5
f 8/16/6 4/24/6 2/17/6
