# Blender v2.78 (sub 0) OBJ File: '42_run_world.blend'
# www.blender.org
o Table_1_Cube.003
v -0.682220 -1.747948 2.377414
v -0.682220 0.187457 2.377414
v -0.682220 -1.747948 -2.377414
v -0.682220 0.187457 -2.377414
v 1.029686 -1.747948 2.377414
v 1.029686 0.187457 2.377414
v 1.029686 -1.747948 -2.377414
v 1.029686 0.187457 -2.377414
v -0.682220 0.187457 -0.594354
v -0.682220 -1.747948 0.594353
v -0.928371 -1.747948 1.783061
v -0.682220 0.187457 -1.783061
v -0.682220 -1.747948 1.783061
v -0.682220 0.187457 0.594353
v -0.682220 -1.747948 -0.594354
v -0.928371 -1.747948 -1.783061
v -0.928371 -1.747948 0.594353
v -0.928371 -1.747948 -0.594354
v -0.682220 0.187457 1.783061
v -0.682220 -1.747948 -1.783061
v -0.928371 0.849681 0.594353
v 0.512803 0.187457 0.543901
v 1.029686 0.187457 -0.594354
v 0.750322 0.187457 -0.543901
v 1.029686 0.187457 0.594353
v 0.750322 0.187457 1.890880
v 0.512803 0.187457 -1.890880
v -0.928371 0.849681 -0.594354
v -0.928371 0.849681 -1.783061
v -0.682220 0.849681 -0.594354
v -0.682220 0.849681 1.783061
v -0.682220 0.849681 0.594353
v -0.928371 0.849681 1.783061
v -0.682220 0.849681 -1.783061
v 1.029686 0.187457 -1.783061
v 1.029686 0.187457 1.783061
v 0.512803 0.187457 1.890880
v 0.750322 0.187457 -1.890880
v 0.512803 0.187457 -0.543901
v 0.750322 0.187457 0.543901
v 0.750322 1.303598 1.890880
v 0.512803 1.303598 1.890880
v 0.750322 1.303598 -1.890880
v 0.512803 1.303598 -1.890880
v 0.750322 1.303598 0.543901
v 0.512803 1.303598 0.543901
v 0.750322 1.303598 -0.543901
v 0.512803 1.303598 -0.543901
vt 0.6317 0.2301
vt 0.8348 0.0004
vt 0.8348 0.2301
vt 0.1423 0.8981
vt 0.3021 0.8699
vt 0.3021 0.8981
vt 0.2120 0.2936
vt 0.5647 0.4967
vt 0.0004 0.4967
vt 0.5701 0.0851
vt 0.6309 0.0528
vt 0.5691 0.1142
vt 0.7066 0.5374
vt 0.5655 0.5666
vt 0.5655 0.5374
vt 0.3531 0.2643
vt 0.4942 0.2936
vt 0.3531 0.2936
vt 0.4052 0.2584
vt 0.4035 0.1071
vt 0.7066 0.5074
vt 0.5655 0.5366
vt 0.5655 0.5074
vt 0.9600 0.8245
vt 0.9308 0.9031
vt 0.9308 0.5948
vt 0.0735 0.0893
vt 0.0904 0.2598
vt 0.0110 0.2635
vt 0.0709 0.2643
vt 0.0709 0.2936
vt 0.8356 0.0004
vt 0.9062 0.2301
vt 0.8356 0.2301
vt 0.0004 0.8699
vt 0.1415 0.9485
vt 0.0004 0.9485
vt 0.0004 0.8691
vt 0.3087 0.7280
vt 0.3087 0.8691
vt 0.0709 0.7272
vt 0.0004 0.4975
vt 0.2120 0.7272
vt 0.9996 0.3968
vt 0.9714 0.2643
vt 0.9996 0.2643
vt 0.2538 0.2567
vt 0.2675 0.0977
vt 0.6725 0.8879
vt 0.5400 0.7280
vt 0.6725 0.7280
vt 0.9900 0.9031
vt 0.9608 0.8245
vt 0.9900 0.5948
vt 0.9300 0.5948
vt 0.8595 0.8245
vt 0.8595 0.5948
vt 0.8144 0.9399
vt 0.6733 0.8613
vt 0.8144 0.8613
vt 0.2689 0.0705
vt 0.8587 0.5948
vt 0.6988 0.7272
vt 0.6988 0.5948
vt 0.0718 0.0473
vt 0.1663 0.0785
vt 0.9706 0.2643
vt 0.9706 0.5727
vt 0.9414 0.4941
vt 0.9352 0.1329
vt 0.9070 0.0004
vt 0.9352 0.0004
vt 0.0004 0.2936
vt 0.9406 0.4941
vt 0.9114 0.5727
vt 0.9114 0.2643
vt 0.5581 0.0504
vt 0.4049 0.0789
vt 0.4129 0.0448
vt 0.4346 0.8699
vt 0.4346 0.8981
vt 0.2657 0.0352
vt 0.0934 0.0084
vt 0.5655 0.4941
vt 0.7687 0.2643
vt 0.7687 0.4941
vt 0.7695 0.5727
vt 0.9106 0.2643
vt 0.9106 0.5727
vt 0.5392 0.7280
vt 0.3095 0.8691
vt 0.3095 0.7280
vt 0.8331 0.8605
vt 0.6733 0.7280
vt 0.8331 0.7280
vt 0.1423 0.8699
vt 0.6317 0.0004
vt 0.6980 0.7272
vt 0.5655 0.5674
vt 0.6980 0.5674
vt 0.9714 0.5567
vt 0.9714 0.3968
vt 0.5647 0.2936
vt 0.6251 0.2635
vt 0.5519 0.2617
vt 0.7066 0.5666
vt 0.4942 0.2643
vt 0.7066 0.5366
vt 0.9600 0.5948
vt 0.9600 0.9031
vt 0.0004 0.0004
vt 0.2120 0.2643
vt 0.9062 0.0004
vt 0.1415 0.8699
vt 0.0004 0.7280
vt 0.5647 0.4975
vt 0.5647 0.7272
vt 0.4942 0.7272
vt 0.3531 0.7272
vt 0.0004 0.7272
vt 0.5400 0.8879
vt 0.9608 0.5948
vt 0.9608 0.9031
vt 0.9300 0.8245
vt 0.6733 0.9399
vt 0.8587 0.7272
vt 0.1675 0.0727
vt 0.9414 0.5727
vt 0.9414 0.2643
vt 0.9070 0.1329
vt 0.9406 0.2643
vt 0.9406 0.5727
vt 0.5655 0.2643
vt 0.7695 0.2643
vt 0.5392 0.8691
vt 0.6733 0.8605
vt 0.5655 0.7272
vt 0.9996 0.5567
vn 0.0000 0.0000 -1.0000
vn 0.0000 1.0000 0.0000
vn 0.0000 -1.0000 0.0000
vn -0.0000 0.0000 1.0000
vn -1.0000 0.0000 0.0000
vn 1.0000 0.0000 0.0000
s off
f 8/1/1 3/2/1 4/3/1
f 48/4/2 43/5/2 44/6/2
f 10/7/3 7/8/3 5/9/3
f 38/10/2 8/11/2 27/12/2
f 32/13/2 33/14/2 31/15/2
f 18/16/3 20/17/3 15/18/3
f 27/12/2 9/19/2 39/20/2
f 34/21/2 28/22/2 30/23/2
f 19/24/4 33/25/4 11/26/4
f 37/27/2 19/28/2 2/29/2
f 11/30/3 10/7/3 13/31/3
f 13/32/5 2/33/5 19/34/5
f 9/35/6 34/36/6 30/37/6
f 17/38/5 33/39/5 21/40/5
f 36/41/6 5/42/6 25/43/6
f 46/44/1 40/45/1 22/46/1
f 14/47/2 37/27/2 22/48/2
f 39/49/5 44/50/5 27/51/5
f 29/52/1 12/53/1 16/54/1
f 20/55/5 4/56/5 3/57/5
f 32/58/6 19/59/6 14/60/6
f 39/20/2 22/48/2 40/61/2
f 10/7/3 15/18/3 7/8/3
f 38/62/6 47/63/6 24/64/6
f 26/65/4 42/66/4 37/27/4
f 17/67/1 21/68/1 14/69/1
f 47/70/4 39/71/4 24/72/4
f 5/9/3 1/73/3 13/31/3
f 9/74/4 28/75/4 18/76/4
f 35/77/2 24/78/2 23/79/2
f 44/6/1 38/80/1 27/81/1
f 25/82/2 26/65/2 36/83/2
f 2/84/4 5/85/4 6/86/4
f 29/87/5 18/88/5 28/89/5
f 14/90/5 15/91/5 10/92/5
f 45/93/6 26/94/6 40/95/6
f 48/4/2 47/96/2 43/5/2
f 8/1/1 7/97/1 3/2/1
f 37/98/5 46/99/5 22/100/5
f 46/44/2 41/101/2 45/102/2
f 5/9/3 13/31/3 10/7/3
f 3/103/3 7/8/3 20/17/3
f 15/18/3 20/17/3 7/8/3
f 4/104/2 12/105/2 27/12/2
f 38/10/2 35/77/2 8/11/2
f 4/104/2 27/12/2 8/11/2
f 32/13/2 21/106/2 33/14/2
f 18/16/3 16/107/3 20/17/3
f 27/12/2 12/105/2 9/19/2
f 34/21/2 29/108/2 28/22/2
f 11/26/4 13/109/4 19/24/4
f 19/24/4 31/110/4 33/25/4
f 2/29/2 6/111/2 37/27/2
f 26/65/2 37/27/2 6/111/2
f 6/111/2 36/83/2 26/65/2
f 11/30/3 17/112/3 10/7/3
f 13/32/5 1/113/5 2/33/5
f 9/35/6 12/114/6 34/36/6
f 17/38/5 11/115/5 33/39/5
f 7/116/6 8/117/6 35/118/6
f 23/119/6 25/43/6 5/42/6
f 7/116/6 35/118/6 23/119/6
f 6/120/6 5/42/6 36/41/6
f 7/116/6 23/119/6 5/42/6
f 46/44/1 45/102/1 40/45/1
f 14/47/2 19/28/2 37/27/2
f 39/49/5 48/121/5 44/50/5
f 20/122/1 16/54/1 12/53/1
f 29/52/1 34/123/1 12/53/1
f 20/55/5 12/124/5 4/56/5
f 32/58/6 31/125/6 19/59/6
f 25/82/2 23/79/2 24/78/2
f 39/20/2 9/19/2 14/47/2
f 25/82/2 24/78/2 40/61/2
f 14/47/2 22/48/2 39/20/2
f 40/61/2 24/78/2 39/20/2
f 38/62/6 43/126/6 47/63/6
f 26/65/4 41/127/4 42/66/4
f 32/128/1 14/69/1 21/68/1
f 10/129/1 17/67/1 14/69/1
f 47/70/4 48/130/4 39/71/4
f 18/76/4 15/131/4 9/74/4
f 9/74/4 30/132/4 28/75/4
f 35/77/2 38/10/2 24/78/2
f 44/6/1 43/5/1 38/80/1
f 25/82/2 40/61/2 26/65/2
f 2/84/4 1/133/4 5/85/4
f 29/87/5 16/134/5 18/88/5
f 14/90/5 9/135/5 15/91/5
f 45/93/6 41/136/6 26/94/6
f 37/98/5 42/137/5 46/99/5
f 46/44/2 42/138/2 41/101/2
